<svg width="64" height="64" viewBox="0 0 64 64" fill="none" xmlns="http://www.w3.org/2000/svg">
<path d="M49.2309 33.4399V41.6368C49.2309 48.5489 41.5168 54.1538 32 54.1538C22.4832 54.1538 14.769 48.5489 14.769 41.6368V33.4399C14.769 40.3519 22.4832 45.2922 32 45.2922C41.5168 45.2922 49.2309 40.3519 49.2309 33.4399Z" stroke="#666666" stroke-width="3.69231" stroke-linecap="round" stroke-linejoin="round"/>
<path d="M49.2312 22.3631C49.2312 24.3792 48.5684 26.2401 47.402 27.8352C44.5656 31.7343 38.7335 34.2155 32.0002 34.2155C25.2669 34.2155 19.4349 31.7343 16.5984 27.8352C15.432 26.2401 14.7693 24.3792 14.7693 22.3631C14.7693 18.9071 16.7044 15.7834 19.806 13.5237C22.9341 11.2419 27.2286 9.84616 32.0002 9.84616C36.7719 9.84616 41.0663 11.2419 44.1944 13.5016C47.296 15.7834 49.2312 18.9071 49.2312 22.3631Z" stroke="#666666" stroke-width="3.69231" stroke-linecap="round" stroke-linejoin="round"/>
<path d="M49.2312 22.3631V33.4401C49.2312 40.3522 41.517 45.2925 32.0002 45.2925C22.4834 45.2925 14.7693 40.3522 14.7693 33.4401V22.3631C14.7693 15.4511 22.4834 9.84616 32.0002 9.84616C36.7719 9.84616 41.0663 11.2419 44.1944 13.5016C47.296 15.7834 49.2312 18.9071 49.2312 22.3631Z" stroke="#666666" stroke-width="3.69231" stroke-linecap="round" stroke-linejoin="round"/>
</svg>
