<svg width="64" height="64" viewBox="0 0 64 64" fill="none" xmlns="http://www.w3.org/2000/svg">
<path d="M31.9997 36.4308H34.215C36.652 36.4308 38.6458 34.4369 38.6458 32V9.84616H18.7073C15.3842 9.84616 12.482 11.6849 10.9756 14.3877" stroke="#666666" stroke-width="3.69231" stroke-linecap="round" stroke-linejoin="round"/>
<path d="M9.84595 43.077C9.84595 46.7546 12.8146 49.7232 16.4921 49.7232H18.7075C18.7075 47.2862 20.7013 45.2924 23.1383 45.2924C25.5752 45.2924 27.569 47.2862 27.569 49.7232H36.4306C36.4306 47.2862 38.4244 45.2924 40.8613 45.2924C43.2983 45.2924 45.2921 47.2862 45.2921 49.7232H47.5075C51.185 49.7232 54.1536 46.7546 54.1536 43.077V36.4309H47.5075C46.289 36.4309 45.2921 35.4339 45.2921 34.2155V27.5693C45.2921 26.3509 46.289 25.3539 47.5075 25.3539H50.3653L46.577 18.73C45.7795 17.3564 44.3173 16.4924 42.7223 16.4924H38.6459V32.0001C38.6459 34.437 36.6521 36.4309 34.2152 36.4309H31.9998" stroke="#666666" stroke-width="3.69231" stroke-linecap="round" stroke-linejoin="round"/>
<path d="M23.1383 54.1539C25.5853 54.1539 27.5691 52.1702 27.5691 49.7231C27.5691 47.276 25.5853 45.2924 23.1383 45.2924C20.6912 45.2924 18.7075 47.276 18.7075 49.7231C18.7075 52.1702 20.6912 54.1539 23.1383 54.1539Z" stroke="#666666" stroke-width="3.69231" stroke-linecap="round" stroke-linejoin="round"/>
<path d="M40.8612 54.1539C43.3083 54.1539 45.292 52.1702 45.292 49.7231C45.292 47.276 43.3083 45.2924 40.8612 45.2924C38.4141 45.2924 36.4304 47.276 36.4304 49.7231C36.4304 52.1702 38.4141 54.1539 40.8612 54.1539Z" stroke="#666666" stroke-width="3.69231" stroke-linecap="round" stroke-linejoin="round"/>
<path d="M54.1535 32.0001V36.4308H47.5074C46.2889 36.4308 45.292 35.4339 45.292 34.2155V27.5693C45.292 26.3508 46.2889 25.3539 47.5074 25.3539H50.3652L54.1535 32.0001Z" stroke="#666666" stroke-width="3.69231" stroke-linecap="round" stroke-linejoin="round"/>
<path d="M9.84595 23.1385H23.1383" stroke="#666666" stroke-width="3.69231" stroke-linecap="round" stroke-linejoin="round"/>
<path d="M9.84595 29.7846H18.7075" stroke="#666666" stroke-width="3.69231" stroke-linecap="round" stroke-linejoin="round"/>
<path d="M9.84595 36.4308H14.2767" stroke="#666666" stroke-width="3.69231" stroke-linecap="round" stroke-linejoin="round"/>
</svg>
