<svg width="64" height="64" viewBox="0 0 64 64" fill="none" xmlns="http://www.w3.org/2000/svg">
<path fill-rule="evenodd" clip-rule="evenodd" d="M28.3636 7.63637C28.3636 5.62809 29.9917 4.00006 32 4.00006C34.0083 4.00006 35.6363 5.62809 35.6363 7.63637H34.1819V11.4441C40.7768 12.4901 45.8183 18.2018 45.8183 25.0909L18.1819 25.0909C18.1819 18.2018 23.2234 12.4901 29.8183 11.4441V7.63637H28.3636ZM14.5456 31.6364C14.5456 30.4314 15.5224 29.4546 16.7274 29.4546H47.2728C48.4778 29.4546 49.4546 30.4314 49.4546 31.6364C49.4546 32.8414 48.4778 33.8182 47.2728 33.8182H47.2727V42.5454H50.5455C52.353 42.5454 53.8183 44.0106 53.8183 45.8181C53.8183 47.243 52.9076 48.4553 51.6365 48.9046V55.6363C54.0464 55.6364 56 57.59 56 60H8.00011C8.00011 57.59 9.95375 55.6364 12.3637 55.6363V48.9046C11.0926 48.4552 10.182 47.243 10.182 45.8181C10.182 44.0106 11.6472 42.5454 13.4547 42.5454H16.7273V33.8182C15.5224 33.8182 14.5456 32.8413 14.5456 31.6364ZM16.7273 49.0908V55.6363H21.0911V49.0908H16.7273ZM29.8183 55.6363H25.4547V49.0908H29.8183V55.6363ZM34.1819 49.0908V55.6363H38.5455V49.0908H34.1819ZM47.2728 55.6363H42.9091V49.0908H47.2728V55.6363ZM38.5455 33.8182H42.9091V42.5454H38.5455V33.8182ZM34.1819 42.5454V33.8182H29.8183V42.5454H34.1819ZM21.0909 33.8182H25.4547V42.5454H21.0909V33.8182Z" fill="#696969"/>
</svg>
