<svg width="64" height="64" viewBox="0 0 64 64" fill="none" xmlns="http://www.w3.org/2000/svg">
<path d="M25.7231 52.9231H38.2769C48.7384 52.9231 52.9231 48.7385 52.9231 38.2769V25.7231C52.9231 15.2615 48.7384 11.0769 38.2769 11.0769H25.7231C15.2615 11.0769 11.0769 15.2615 11.0769 25.7231V38.2769C11.0769 48.7385 15.2615 52.9231 25.7231 52.9231Z" stroke="#666666" stroke-width="4" stroke-linecap="round" stroke-linejoin="round"/>
<path d="M25.7231 27.8154C28.0342 27.8154 29.9077 25.9419 29.9077 23.6308C29.9077 21.3197 28.0342 19.4462 25.7231 19.4462C23.412 19.4462 21.5385 21.3197 21.5385 23.6308C21.5385 25.9419 23.412 27.8154 25.7231 27.8154Z" stroke="#666666" stroke-width="4" stroke-linecap="round" stroke-linejoin="round"/>
<path d="M12.4789 46.5417L22.794 39.6162C24.4469 38.5073 26.8321 38.6328 28.3176 39.9091L29.008 40.5159C30.64 41.9177 33.2763 41.9177 34.9083 40.5159L43.6123 33.0463C45.2443 31.6445 47.8806 31.6445 49.5126 33.0463L52.9231 35.9756" stroke="#666666" stroke-width="4" stroke-linecap="round" stroke-linejoin="round"/>
</svg>
