<svg width="64" height="64" viewBox="0 0 64 64" fill="none" xmlns="http://www.w3.org/2000/svg">
<path d="M21.2927 47.0464L28.6371 52.7323C29.5847 53.68 31.717 54.1538 33.1384 54.1538H42.1412C44.9841 54.1538 48.064 52.0216 48.7747 49.1786L54.4606 31.884C55.6452 28.5672 53.513 25.7241 49.9593 25.7241H40.4828C39.0613 25.7241 37.8767 24.5396 38.1136 22.8812L39.2982 15.3C39.772 13.1677 38.3505 10.7986 36.2183 10.0879C34.323 9.37712 31.9539 10.3248 31.0062 11.7463L21.2927 26.198" stroke="#666666" stroke-width="3.69231" stroke-miterlimit="10"/>
<path d="M9.20996 47.0465V23.829C9.20996 20.5122 10.6314 19.3277 13.9482 19.3277H16.3174C19.6342 19.3277 21.0556 20.5122 21.0556 23.829V47.0465C21.0556 50.3633 19.6342 51.5478 16.3174 51.5478H13.9482C10.6314 51.5478 9.20996 50.3633 9.20996 47.0465Z" stroke="#666666" stroke-width="3.69231" stroke-linecap="round" stroke-linejoin="round"/>
</svg>
