<svg width="64" height="64" viewBox="0 0 64 64" fill="none" xmlns="http://www.w3.org/2000/svg">
<path d="M49.7229 20.923V43.0768C49.7229 51.9383 47.5075 54.1537 38.646 54.1537H25.3537C16.4922 54.1537 14.2769 51.9383 14.2769 43.0768V20.923C14.2769 12.0615 16.4922 9.84616 25.3537 9.84616H38.646C47.5075 9.84616 49.7229 12.0615 49.7229 20.923Z" stroke="#666666" stroke-width="3.69231" stroke-linecap="round" stroke-linejoin="round"/>
<path d="M36.4306 17.6H27.5691" stroke="#666666" stroke-width="3.69231" stroke-linecap="round" stroke-linejoin="round"/>
<path d="M31.9995 47.729C33.896 47.729 35.4335 46.1916 35.4335 44.2952C35.4335 42.3988 33.896 40.8614 31.9995 40.8614C30.1031 40.8614 28.5657 42.3988 28.5657 44.2952C28.5657 46.1916 30.1031 47.729 31.9995 47.729Z" stroke="#666666" stroke-width="3.69231" stroke-linecap="round" stroke-linejoin="round"/>
</svg>
