<svg width="64" height="64" viewBox="0 0 64 64" fill="none" xmlns="http://www.w3.org/2000/svg">
<path d="M52.0077 21.3956L45.2202 48.6462C44.7369 50.6805 42.9242 52.0903 40.8295 52.0903H14.3644C11.3231 52.0903 9.14794 49.1093 10.0543 46.1888L18.5336 18.9587C19.1177 17.0654 20.87 15.7561 22.8438 15.7561H47.617C49.5304 15.7561 51.1215 16.9243 51.7862 18.5355C52.1689 19.4016 52.2494 20.3886 52.0077 21.3956Z" stroke="#666666" stroke-width="3.69231" stroke-miterlimit="10"/>
<path d="M40.0642 52.0904H49.6916C52.2897 52.0904 54.324 49.895 54.1427 47.2968L52.1487 19.8649" stroke="#666666" stroke-width="3.69231" stroke-miterlimit="10" stroke-linecap="round" stroke-linejoin="round"/>
<path d="M27.3348 20.6304L29.4295 11.9297" stroke="#666666" stroke-width="3.69231" stroke-miterlimit="10" stroke-linecap="round" stroke-linejoin="round"/>
<path d="M40.8292 20.6505L42.7225 11.9094" stroke="#666666" stroke-width="3.69231" stroke-miterlimit="10" stroke-linecap="round" stroke-linejoin="round"/>
<path d="M23.3475 31.9494H39.4602" stroke="#666666" stroke-width="3.69231" stroke-miterlimit="10" stroke-linecap="round" stroke-linejoin="round"/>
<path d="M21.3334 40.0059H37.4461" stroke="#666666" stroke-width="3.69231" stroke-miterlimit="10" stroke-linecap="round" stroke-linejoin="round"/>
</svg>
