<svg width="64" height="64" viewBox="0 0 64 64" fill="none" xmlns="http://www.w3.org/2000/svg">
<path d="M35.8593 13.0456L39.7901 20.9073C40.3262 22.0017 41.7556 23.0514 42.9616 23.2524L50.0863 24.4361C54.6425 25.1955 55.7146 28.501 52.4314 31.7618L46.8925 37.3007C45.9544 38.2388 45.4407 40.0479 45.7311 41.3432L47.3168 48.1999C48.5676 53.6272 45.6864 55.7266 40.8845 52.8901L34.2065 48.9369C33.0005 48.2222 31.0127 48.2222 29.7843 48.9369L23.1063 52.8901C18.3267 55.7266 15.4232 53.6048 16.674 48.1999L18.2597 41.3432C18.55 40.0479 18.0364 38.2388 17.0983 37.3007L11.5594 31.7618C8.29855 28.501 9.34826 25.1955 13.9045 24.4361L21.0292 23.2524C22.2129 23.0514 23.6423 22.0017 24.1783 20.9073L28.1092 13.0456C30.2533 8.77969 33.7375 8.77969 35.8593 13.0456Z" stroke="#666666" stroke-width="3.69231" stroke-linecap="round" stroke-linejoin="round"/>
</svg>
