<svg width="64" height="64" viewBox="0 0 64 64" fill="none" xmlns="http://www.w3.org/2000/svg">
<path d="M30.057 9.53821L30.0575 9.53775C31.0823 8.66152 32.8866 8.64859 33.9525 9.54093L37.8838 12.9248C37.8847 12.9256 37.8855 12.9263 37.8864 12.9271C38.4746 13.4361 39.222 13.8261 39.9258 14.0891C40.6308 14.3525 41.4546 14.5491 42.2383 14.5491H46.4821C48.1087 14.5491 49.454 15.8944 49.454 17.521V21.7648C49.454 22.5385 49.6518 23.3624 49.9128 24.0648C50.1736 24.7666 50.5632 25.5242 51.0763 26.117C51.077 26.1178 51.0777 26.1186 51.0783 26.1194L54.4654 30.0544C54.4659 30.055 54.4664 30.0556 54.4669 30.0562C55.3417 31.0813 55.354 32.8842 54.4621 33.9495L51.0783 37.8806C51.0778 37.8813 51.0772 37.8819 51.0766 37.8826C50.5674 38.4709 50.1771 39.2186 49.914 39.9227C49.6506 40.6277 49.454 41.4515 49.454 42.2352V46.479C49.454 48.1055 48.1087 49.4508 46.4821 49.4508H42.2383C41.4646 49.4508 40.6407 49.6487 39.9383 49.9097C39.2367 50.1704 38.4795 50.5598 37.8867 51.0727C37.8857 51.0735 37.8847 51.0743 37.8838 51.0752L33.9488 54.4622C33.9482 54.4627 33.9477 54.4632 33.9471 54.4637C32.9221 55.3385 31.1191 55.3509 30.0539 54.459L26.1225 51.0752C26.1216 51.0744 26.1207 51.0736 26.1198 51.0729C25.5317 50.5639 24.7842 50.1738 24.0804 49.9109C23.3754 49.6475 22.5516 49.4508 21.7679 49.4508H17.4492C15.8227 49.4508 14.4774 48.1055 14.4774 46.479V42.2102C14.4774 41.4353 14.2789 40.6177 14.0224 39.9248C13.765 39.2294 13.3863 38.4901 12.9011 37.9078L12.8957 37.9013L12.8902 37.8948L9.52598 33.9326C9.52516 33.9316 9.52433 33.9306 9.52351 33.9296C8.65618 32.8944 8.65618 31.1056 9.5235 30.0704C9.52433 30.0694 9.52516 30.0685 9.52598 30.0675L12.8902 26.1051L12.8957 26.0986L12.9011 26.0921C13.3863 25.5099 13.765 24.7706 14.0224 24.0752C14.2789 23.3823 14.4774 22.5647 14.4774 21.7898V17.496C14.4774 15.8695 15.8227 14.5242 17.4492 14.5242H21.7679C22.5416 14.5242 23.3655 14.3263 24.068 14.0653C24.7684 13.805 25.5245 13.4164 26.1169 12.9047L30.057 9.53821Z" stroke="#666666" stroke-width="3.69231"/>
<path d="M21.7961 32.0797L29.673 39.0299L42.3088 24.2607" stroke="#666666" stroke-width="4.92308"/>
</svg>
