<svg width="47" height="43" viewBox="0 0 47 43" fill="none" xmlns="http://www.w3.org/2000/svg">
<path fill-rule="evenodd" clip-rule="evenodd" d="M41.1918 29.5L28.2015 7.00001C25.892 3 20.1186 3 17.8092 6.99999L4.81877 29.5C2.50936 33.5 5.39612 38.5 10.0149 38.5H35.9957C40.6145 38.5 43.5012 33.5 41.1918 29.5ZM31.6656 5.00001C27.8166 -1.66666 18.1941 -1.66667 14.3451 4.99999L1.35467 27.5C-2.49433 34.1667 2.3169 42.5 10.0149 42.5H35.9957C43.6937 42.5 48.5049 34.1667 44.6559 27.5L31.6656 5.00001Z" fill="#E0B724"/>
<path d="M24.2768 27.4352H20.7911L20.0625 13H25.0054L24.2768 27.4352ZM20.0054 32.4882C20.0054 31.5623 20.2482 30.9122 20.7339 30.5379C21.2292 30.1636 21.8244 29.9765 22.5197 29.9765C23.1958 29.9765 23.7768 30.1636 24.2625 30.5379C24.7578 30.9122 25.0054 31.5623 25.0054 32.4882C25.0054 33.3747 24.7578 34.015 24.2625 34.409C23.7768 34.803 23.1958 35 22.5197 35C21.8244 35 21.2292 34.803 20.7339 34.409C20.2482 34.015 20.0054 33.3747 20.0054 32.4882Z" fill="#E0B724"/>
</svg>
