<svg width="64" height="64" viewBox="0 0 64 64" fill="none" xmlns="http://www.w3.org/2000/svg">
<path d="M40.1628 23.5116V11.924C40.1628 9.4871 38.1445 7.51164 35.6548 7.51164H9.5081C7.01837 7.51164 5.00005 9.48711 5.00005 11.924V27.8083C5.00005 30.2452 7.01837 32.2206 9.5081 32.2206H12.0161C13.1207 32.2206 14.0161 33.1161 14.0161 34.2206V40.1628L21.5557 33.5213C22.5073 32.6831 23.7319 32.2206 25 32.2206V32.2206" stroke="#666666" stroke-width="2"/>
<path d="M29.4401 23.8372C27.0393 23.8372 25.093 25.8127 25.093 28.2495V44.1339C25.093 46.5707 27.0393 48.5462 29.4401 48.5462H39.2838C40.7814 48.5462 42.2249 49.1062 43.3306 50.1163L50.3059 56.4884V50.5462C50.3059 49.4416 51.2013 48.5462 52.3059 48.5462H54.6529C57.0538 48.5462 59 46.5707 59 44.1339V28.2495C59 25.8127 57.0538 23.8372 54.6529 23.8372H29.4401Z" stroke="#666666" stroke-width="4"/>
</svg>
