<svg width="64" height="64" viewBox="0 0 64 64" fill="none" xmlns="http://www.w3.org/2000/svg">
<path d="M38.6462 9.84616V32C38.6462 34.4369 36.6523 36.4308 34.2154 36.4308H9.84619V18.7077C9.84619 13.8117 13.8117 9.84616 18.7077 9.84616H38.6462Z" stroke="#666666" stroke-width="3.69231" stroke-linecap="round" stroke-linejoin="round"/>
<path d="M54.1539 36.4307V43.0769C54.1539 46.7544 51.1853 49.723 47.5077 49.723H45.2923C45.2923 47.2861 43.2985 45.2923 40.8616 45.2923C38.4247 45.2923 36.4308 47.2861 36.4308 49.723H27.5693C27.5693 47.2861 25.5754 45.2923 23.1385 45.2923C20.7016 45.2923 18.7077 47.2861 18.7077 49.723H16.4923C12.8148 49.723 9.84619 46.7544 9.84619 43.0769V36.4307H34.2154C36.6523 36.4307 38.6462 34.4369 38.6462 32V16.4923H42.7225C44.3176 16.4923 45.7797 17.3563 46.5773 18.7298L50.3656 25.3538H47.5077C46.2893 25.3538 45.2923 26.3507 45.2923 27.5692V34.2154C45.2923 35.4338 46.2893 36.4307 47.5077 36.4307H54.1539Z" stroke="#666666" stroke-width="3.69231" stroke-linecap="round" stroke-linejoin="round"/>
<path d="M23.1388 54.154C25.5858 54.154 27.5695 52.1703 27.5695 49.7232C27.5695 47.2761 25.5858 45.2924 23.1388 45.2924C20.6917 45.2924 18.708 47.2761 18.708 49.7232C18.708 52.1703 20.6917 54.154 23.1388 54.154Z" stroke="#666666" stroke-width="3.69231" stroke-linecap="round" stroke-linejoin="round"/>
<path d="M40.8614 54.154C43.3085 54.154 45.2922 52.1703 45.2922 49.7232C45.2922 47.2761 43.3085 45.2924 40.8614 45.2924C38.4143 45.2924 36.4307 47.2761 36.4307 49.7232C36.4307 52.1703 38.4143 54.154 40.8614 54.154Z" stroke="#666666" stroke-width="3.69231" stroke-linecap="round" stroke-linejoin="round"/>
<path d="M54.1535 32V36.4308H47.5074C46.2889 36.4308 45.292 35.4339 45.292 34.2154V27.5693C45.292 26.3508 46.2889 25.3539 47.5074 25.3539H50.3652L54.1535 32Z" stroke="#666666" stroke-width="3.69231" stroke-linecap="round" stroke-linejoin="round"/>
</svg>
