<svg width="47" height="43" viewBox="0 0 47 43" fill="none" xmlns="http://www.w3.org/2000/svg">
<path fill-rule="evenodd" clip-rule="evenodd" d="M41.1918 29.5L28.2015 7.00001C25.892 3 20.1186 3 17.8092 6.99999L4.81877 29.5C2.50936 33.5 5.39612 38.5 10.0149 38.5H35.9957C40.6145 38.5 43.5012 33.5 41.1918 29.5ZM31.6656 5.00001C27.8166 -1.66666 18.1941 -1.66667 14.3451 4.99999L1.35467 27.5C-2.49433 34.1667 2.3169 42.5 10.0149 42.5H35.9957C43.6937 42.5 48.5049 34.1667 44.6559 27.5L31.6656 5.00001Z" fill="#EF0C0C"/>
<path d="M16.8098 18.8043L22.8967 24.8913M28.9837 30.9782L22.8967 24.8913M22.8967 24.8913L16.8098 30.9782M22.8967 24.8913L28.9837 18.8043" stroke="#EF0C0C" stroke-width="4"/>
</svg>
