<svg width="64" height="64" viewBox="0 0 64 64" fill="none" xmlns="http://www.w3.org/2000/svg">
<path fill-rule="evenodd" clip-rule="evenodd" d="M5.83774 35.8636L23.7929 62.1057L41.748 35.8636C51.6272 21.4247 41.288 1.82276 23.7929 1.82276C6.29776 1.82276 -4.04147 21.4247 5.83774 35.8636ZM23.793 31.9642C28.1737 31.9642 31.725 28.4129 31.725 24.0322C31.725 19.6515 28.1737 16.1002 23.793 16.1002C19.4123 16.1002 15.861 19.6515 15.861 24.0322C15.861 28.4129 19.4123 31.9642 23.793 31.9642Z" fill="#696969"/>
<circle cx="42.9632" cy="43.1405" r="17.5367" fill="white" stroke="#696969" stroke-width="3"/>
<path d="M50.8953 35.2085L42.9633 43.1405M35.0313 51.0725L42.9633 43.1405M42.9633 43.1405L50.8953 51.0725M42.9633 43.1405L35.0313 35.2085" stroke="#696969" stroke-width="2"/>
</svg>
