<svg width="64" height="64" viewBox="0 0 64 64" fill="none" xmlns="http://www.w3.org/2000/svg">
<path fill-rule="evenodd" clip-rule="evenodd" d="M21.3125 18.3437C21.3125 12.4412 26.0975 7.65624 32 7.65624C37.9025 7.65624 42.6875 12.4412 42.6875 18.3437V27.0521H21.3125V18.3437ZM17.3542 27.0521V18.3437C17.3542 10.2551 23.9113 3.69791 32 3.69791C40.0887 3.69791 46.6458 10.2551 46.6458 18.3437V27.0521H51V41.3021C51 51.7955 42.4934 60.3021 32 60.3021C21.5066 60.3021 13 51.7955 13 41.3021V27.0521H17.3542ZM34.1263 42.3987C35.4937 41.6303 36.4176 40.1658 36.4176 38.4856C36.4176 36.0083 34.4094 34.0001 31.9322 34.0001C29.4549 34.0001 27.4467 36.0083 27.4467 38.4856C27.4467 40.166 28.3707 41.6305 29.7384 42.3989L28.6986 48.604H35.1661L34.1263 42.3987Z" fill="#666666"/>
</svg>
