<svg width="64" height="64" viewBox="0 0 64 64" fill="none" xmlns="http://www.w3.org/2000/svg">
<path d="M31.9999 54.1539C41.1495 54.1539 48.6153 46.688 48.6153 37.5385V26.4615C48.6153 17.312 41.1495 9.84613 31.9999 9.84613C22.8504 9.84613 15.3845 17.312 15.3845 26.4615V37.5385C15.3845 46.688 22.8504 54.1539 31.9999 54.1539Z" stroke="#666666" stroke-width="3.69231" stroke-linecap="round" stroke-linejoin="round"/>
<path d="M31.9998 29.7847C30.1611 29.7847 28.6768 28.3004 28.6768 26.4616V22.0308C28.6768 20.1921 30.1611 18.7078 31.9998 18.7078C33.8165 18.7078 35.3229 20.1921 35.3229 22.0308V26.4616C35.3229 28.3004 33.8165 29.7847 31.9998 29.7847Z" stroke="#666666" stroke-width="3.69231" stroke-linecap="round" stroke-linejoin="round"/>
<path d="M32 18.7077V9.84613" stroke="#666666" stroke-width="3.69231" stroke-linecap="round" stroke-linejoin="round"/>
</svg>
