<svg width="64" height="64" viewBox="0 0 64 64" fill="none" xmlns="http://www.w3.org/2000/svg">
<path d="M55.8462 28.1527L53.4323 38.4489C51.3632 47.3411 47.2743 50.9373 39.5891 50.1984C38.3575 50.0998 37.0274 49.8782 35.5987 49.5333L31.4605 48.548C21.1889 46.1095 18.0114 41.0353 20.4253 30.7391L22.8393 20.4183C23.3319 18.3246 23.9231 16.5018 24.662 14.9993C27.5441 9.03836 32.4458 7.43728 40.6729 9.38321L44.7864 10.3439C55.1072 12.7578 58.2601 17.8566 55.8462 28.1527Z" stroke="#666666" stroke-width="3.69231" stroke-linecap="round" stroke-linejoin="round"/>
<path d="M39.5886 50.1984C38.0614 51.233 36.1401 52.0951 33.8001 52.8587L29.9082 54.1396C20.1293 57.2924 14.9812 54.6568 11.8037 44.8779L8.65076 35.1483C5.49787 25.3694 8.10886 20.1966 17.8878 17.0438L21.7796 15.7629C22.7895 15.4427 23.7502 15.1717 24.6615 14.9993C23.9226 16.5018 23.3314 18.3246 22.8388 20.4183L20.4248 30.7392C18.0109 41.0353 21.1885 46.1095 31.46 48.5481L35.5982 49.5334C37.0269 49.8782 38.357 50.0999 39.5886 50.1984Z" stroke="#666666" stroke-width="3.69231" stroke-linecap="round" stroke-linejoin="round"/>
<path d="M33.6277 23.4482L45.5742 26.4779" stroke="#666666" stroke-width="3.69231" stroke-linecap="round" stroke-linejoin="round"/>
<path d="M31.2137 32.9807L38.357 34.8035" stroke="#666666" stroke-width="3.69231" stroke-linecap="round" stroke-linejoin="round"/>
</svg>
