<svg width="64" height="64" viewBox="0 0 64 64" fill="none" xmlns="http://www.w3.org/2000/svg">
<path d="M32.3953 29.0909C32.1483 29.0662 31.8519 29.0662 31.5803 29.0909C25.7026 28.8931 21.035 24.072 21.035 18.1382C21.035 12.0809 25.9248 7.16083 32.0001 7.16083C38.0506 7.16083 42.9651 12.0809 42.9651 18.1382C42.9404 24.072 38.2729 28.8931 32.3953 29.0909Z" stroke="#666666" stroke-width="3.69231" stroke-linecap="round" stroke-linejoin="round"/>
<path d="M17.5484 38.2117C10.5608 42.374 10.5608 49.1569 17.5484 53.2935C25.4889 58.021 38.5112 58.021 46.4517 53.2935C53.4393 49.1312 53.4393 42.3483 46.4517 38.2117C38.5401 33.5098 25.5177 33.5098 17.5484 38.2117Z" stroke="#666666" stroke-width="3.69231" stroke-linecap="round" stroke-linejoin="round"/>
</svg>
