<svg width="64" height="64" viewBox="0 0 64 64" fill="none" xmlns="http://www.w3.org/2000/svg">
<path d="M10.3468 9.84616H14.2016C16.5942 9.84616 18.4773 11.9065 18.2779 14.2769L16.4391 36.3422C16.129 39.9533 18.9868 43.0548 22.62 43.0548H46.2139C49.4041 43.0548 52.1955 40.4407 52.4392 37.2727L53.6355 20.6572C53.9013 16.9797 51.1099 13.9889 47.4102 13.9889H18.8096" stroke="#666666" stroke-width="3.69231" stroke-miterlimit="10" stroke-linecap="round" stroke-linejoin="round"/>
<path d="M41.9165 54.1539C43.446 54.1539 44.6857 52.9142 44.6857 51.3847C44.6857 49.8552 43.446 48.6155 41.9165 48.6155C40.3869 48.6155 39.1472 49.8552 39.1472 51.3847C39.1472 52.9142 40.3869 54.1539 41.9165 54.1539Z" stroke="#666666" stroke-width="3.69231" stroke-miterlimit="10" stroke-linecap="round" stroke-linejoin="round"/>
<path d="M24.1933 54.1539C25.7227 54.1539 26.9625 52.9142 26.9625 51.3847C26.9625 49.8552 25.7227 48.6155 24.1933 48.6155C22.6639 48.6155 21.4241 49.8552 21.4241 51.3847C21.4241 52.9142 22.6639 54.1539 24.1933 54.1539Z" stroke="#666666" stroke-width="3.69231" stroke-miterlimit="10" stroke-linecap="round" stroke-linejoin="round"/>
<path d="M25.8551 23.1386H52.4397" stroke="#666666" stroke-width="3.69231" stroke-miterlimit="10" stroke-linecap="round" stroke-linejoin="round"/>
</svg>
